<mxfile host="app.diagrams.net" modified="2023-02-18T15:54:41.410Z" agent="5.0 (Macintosh; Intel Mac OS X 10_15_7) AppleWebKit/605.1.15 (KHTML, like Gecko) Version/16.1 Safari/605.1.15" etag="r7gpbbr-8BJxVKu1i-mQ" version="20.8.20" type="github">
  <diagram id="C5RBs43oDa-KdzZeNtuy" name="Page-1">
    <mxGraphModel dx="1122" dy="733" grid="1" gridSize="10" guides="1" tooltips="1" connect="1" arrows="1" fold="1" page="1" pageScale="1" pageWidth="827" pageHeight="1169" math="0" shadow="0">
      <root>
        <mxCell id="WIyWlLk6GJQsqaUBKTNV-0" />
        <mxCell id="WIyWlLk6GJQsqaUBKTNV-1" parent="WIyWlLk6GJQsqaUBKTNV-0" />
        <mxCell id="2DpMu3CkP3vYGpOYcfCn-1" value="Bank Statement" style="swimlane;whiteSpace=wrap;html=1;" vertex="1" parent="WIyWlLk6GJQsqaUBKTNV-1">
          <mxGeometry x="210" y="10" width="360" height="132" as="geometry" />
        </mxCell>
        <mxCell id="2DpMu3CkP3vYGpOYcfCn-3" value="&lt;p style=&quot;margin: 0px; font-stretch: normal; line-height: normal; font-family: &amp;quot;Helvetica Neue&amp;quot;;&quot;&gt;&lt;font style=&quot;font-size: 12px;&quot;&gt;Transaction Date&lt;/font&gt;&lt;/p&gt;" style="text;html=1;strokeColor=none;fillColor=none;align=center;verticalAlign=middle;whiteSpace=wrap;rounded=0;" vertex="1" parent="2DpMu3CkP3vYGpOYcfCn-1">
          <mxGeometry x="3" y="25" width="60" height="30" as="geometry" />
        </mxCell>
        <mxCell id="2DpMu3CkP3vYGpOYcfCn-8" value="&lt;p style=&quot;margin: 0px; font-stretch: normal; line-height: normal; font-family: &amp;quot;Helvetica Neue&amp;quot;;&quot;&gt;&lt;font style=&quot;font-size: 12px;&quot;&gt;Withdrawal&lt;/font&gt;&lt;/p&gt;" style="text;html=1;strokeColor=none;fillColor=none;align=center;verticalAlign=middle;whiteSpace=wrap;rounded=0;" vertex="1" parent="2DpMu3CkP3vYGpOYcfCn-1">
          <mxGeometry x="63" y="20" width="70" height="30" as="geometry" />
        </mxCell>
        <mxCell id="2DpMu3CkP3vYGpOYcfCn-9" value="&lt;p style=&quot;margin: 0px; font-style: normal; font-variant-caps: normal; font-weight: normal; font-stretch: normal; line-height: normal; font-family: &amp;quot;Helvetica Neue&amp;quot;; color: rgb(0, 0, 0);&quot;&gt;&lt;font style=&quot;font-size: 12px;&quot;&gt;Deposit&lt;/font&gt;&lt;/p&gt;" style="text;whiteSpace=wrap;html=1;align=center;verticalAlign=middle;" vertex="1" parent="2DpMu3CkP3vYGpOYcfCn-1">
          <mxGeometry x="120" y="15" width="70" height="40" as="geometry" />
        </mxCell>
        <mxCell id="2DpMu3CkP3vYGpOYcfCn-4" value="Blalance" style="text;html=1;strokeColor=none;fillColor=none;align=center;verticalAlign=middle;whiteSpace=wrap;rounded=0;" vertex="1" parent="2DpMu3CkP3vYGpOYcfCn-1">
          <mxGeometry x="180" y="20" width="60" height="30" as="geometry" />
        </mxCell>
        <mxCell id="2DpMu3CkP3vYGpOYcfCn-10" value="&lt;p style=&quot;margin: 0px; font-stretch: normal; line-height: normal; font-family: &amp;quot;Helvetica Neue&amp;quot;;&quot;&gt;&lt;font style=&quot;font-size: 12px;&quot;&gt;Narration&lt;/font&gt;&lt;/p&gt;" style="text;html=1;strokeColor=none;fillColor=none;align=center;verticalAlign=middle;whiteSpace=wrap;rounded=0;" vertex="1" parent="2DpMu3CkP3vYGpOYcfCn-1">
          <mxGeometry x="240" y="20" width="60" height="30" as="geometry" />
        </mxCell>
        <mxCell id="2DpMu3CkP3vYGpOYcfCn-5" value="Remark" style="text;html=1;strokeColor=none;fillColor=none;align=center;verticalAlign=middle;whiteSpace=wrap;rounded=0;" vertex="1" parent="2DpMu3CkP3vYGpOYcfCn-1">
          <mxGeometry x="300" y="20" width="60" height="30" as="geometry" />
        </mxCell>
        <mxCell id="2DpMu3CkP3vYGpOYcfCn-17" value="" style="line;strokeWidth=2;direction=south;html=1;fontSize=12;" vertex="1" parent="2DpMu3CkP3vYGpOYcfCn-1">
          <mxGeometry x="61" y="23" width="10" height="107" as="geometry" />
        </mxCell>
        <mxCell id="2DpMu3CkP3vYGpOYcfCn-18" value="" style="line;strokeWidth=2;direction=south;html=1;fontSize=12;" vertex="1" parent="2DpMu3CkP3vYGpOYcfCn-1">
          <mxGeometry x="126" y="23" width="10" height="107" as="geometry" />
        </mxCell>
        <mxCell id="2DpMu3CkP3vYGpOYcfCn-19" value="" style="line;strokeWidth=2;direction=south;html=1;fontSize=12;" vertex="1" parent="2DpMu3CkP3vYGpOYcfCn-1">
          <mxGeometry x="175" y="23" width="10" height="107" as="geometry" />
        </mxCell>
        <mxCell id="2DpMu3CkP3vYGpOYcfCn-20" value="" style="line;strokeWidth=2;direction=south;html=1;fontSize=12;" vertex="1" parent="2DpMu3CkP3vYGpOYcfCn-1">
          <mxGeometry x="233" y="24" width="10" height="107" as="geometry" />
        </mxCell>
        <mxCell id="2DpMu3CkP3vYGpOYcfCn-21" value="" style="line;strokeWidth=2;direction=south;html=1;fontSize=12;" vertex="1" parent="2DpMu3CkP3vYGpOYcfCn-1">
          <mxGeometry x="296" y="24" width="10" height="107" as="geometry" />
        </mxCell>
        <mxCell id="2DpMu3CkP3vYGpOYcfCn-34" style="edgeStyle=orthogonalEdgeStyle;rounded=0;orthogonalLoop=1;jettySize=auto;html=1;entryX=0.5;entryY=0;entryDx=0;entryDy=0;fontSize=10;" edge="1" parent="WIyWlLk6GJQsqaUBKTNV-1" source="2DpMu3CkP3vYGpOYcfCn-23" target="2DpMu3CkP3vYGpOYcfCn-25">
          <mxGeometry relative="1" as="geometry" />
        </mxCell>
        <mxCell id="2DpMu3CkP3vYGpOYcfCn-44" style="edgeStyle=orthogonalEdgeStyle;rounded=0;orthogonalLoop=1;jettySize=auto;html=1;entryX=0.5;entryY=0;entryDx=0;entryDy=0;fontSize=10;fontColor=#202021;" edge="1" parent="WIyWlLk6GJQsqaUBKTNV-1" source="2DpMu3CkP3vYGpOYcfCn-23" target="2DpMu3CkP3vYGpOYcfCn-40">
          <mxGeometry relative="1" as="geometry" />
        </mxCell>
        <mxCell id="2DpMu3CkP3vYGpOYcfCn-23" value="Read Transactions" style="shape=process;whiteSpace=wrap;html=1;backgroundOutline=1;fontSize=12;" vertex="1" parent="WIyWlLk6GJQsqaUBKTNV-1">
          <mxGeometry x="330" y="200" width="120" height="60" as="geometry" />
        </mxCell>
        <mxCell id="2DpMu3CkP3vYGpOYcfCn-35" style="edgeStyle=orthogonalEdgeStyle;rounded=0;orthogonalLoop=1;jettySize=auto;html=1;entryX=0.5;entryY=0;entryDx=0;entryDy=0;fontSize=10;" edge="1" parent="WIyWlLk6GJQsqaUBKTNV-1" source="2DpMu3CkP3vYGpOYcfCn-25" target="2DpMu3CkP3vYGpOYcfCn-26">
          <mxGeometry relative="1" as="geometry" />
        </mxCell>
        <mxCell id="2DpMu3CkP3vYGpOYcfCn-45" style="edgeStyle=orthogonalEdgeStyle;rounded=0;orthogonalLoop=1;jettySize=auto;html=1;entryX=1;entryY=0.5;entryDx=0;entryDy=0;fontSize=10;fontColor=#202021;" edge="1" parent="WIyWlLk6GJQsqaUBKTNV-1" source="2DpMu3CkP3vYGpOYcfCn-25" target="2DpMu3CkP3vYGpOYcfCn-43">
          <mxGeometry relative="1" as="geometry" />
        </mxCell>
        <mxCell id="2DpMu3CkP3vYGpOYcfCn-25" value="Extraction of transaction descriptions from narration" style="shape=process;whiteSpace=wrap;html=1;backgroundOutline=1;fontSize=12;" vertex="1" parent="WIyWlLk6GJQsqaUBKTNV-1">
          <mxGeometry x="330" y="310" width="120" height="60" as="geometry" />
        </mxCell>
        <mxCell id="2DpMu3CkP3vYGpOYcfCn-37" style="edgeStyle=orthogonalEdgeStyle;rounded=0;orthogonalLoop=1;jettySize=auto;html=1;entryX=0.5;entryY=0;entryDx=0;entryDy=0;fontSize=10;" edge="1" parent="WIyWlLk6GJQsqaUBKTNV-1" source="2DpMu3CkP3vYGpOYcfCn-26" target="2DpMu3CkP3vYGpOYcfCn-36">
          <mxGeometry relative="1" as="geometry" />
        </mxCell>
        <mxCell id="2DpMu3CkP3vYGpOYcfCn-46" style="edgeStyle=orthogonalEdgeStyle;rounded=0;orthogonalLoop=1;jettySize=auto;html=1;fontSize=10;fontColor=#202021;" edge="1" parent="WIyWlLk6GJQsqaUBKTNV-1" source="2DpMu3CkP3vYGpOYcfCn-26">
          <mxGeometry relative="1" as="geometry">
            <mxPoint x="170" y="500" as="targetPoint" />
            <Array as="points">
              <mxPoint x="310" y="460" />
              <mxPoint x="310" y="520" />
              <mxPoint x="170" y="520" />
            </Array>
          </mxGeometry>
        </mxCell>
        <mxCell id="2DpMu3CkP3vYGpOYcfCn-26" value="Categorization of transactions" style="shape=process;whiteSpace=wrap;html=1;backgroundOutline=1;fontSize=12;" vertex="1" parent="WIyWlLk6GJQsqaUBKTNV-1">
          <mxGeometry x="330" y="430" width="120" height="60" as="geometry" />
        </mxCell>
        <mxCell id="2DpMu3CkP3vYGpOYcfCn-33" style="edgeStyle=orthogonalEdgeStyle;rounded=0;orthogonalLoop=1;jettySize=auto;html=1;fontSize=10;" edge="1" parent="WIyWlLk6GJQsqaUBKTNV-1" source="2DpMu3CkP3vYGpOYcfCn-19" target="2DpMu3CkP3vYGpOYcfCn-23">
          <mxGeometry relative="1" as="geometry" />
        </mxCell>
        <mxCell id="2DpMu3CkP3vYGpOYcfCn-58" style="edgeStyle=orthogonalEdgeStyle;rounded=0;orthogonalLoop=1;jettySize=auto;html=1;entryX=0.5;entryY=0;entryDx=0;entryDy=0;fontSize=10;fontColor=#202021;" edge="1" parent="WIyWlLk6GJQsqaUBKTNV-1" source="2DpMu3CkP3vYGpOYcfCn-36" target="2DpMu3CkP3vYGpOYcfCn-57">
          <mxGeometry relative="1" as="geometry" />
        </mxCell>
        <mxCell id="2DpMu3CkP3vYGpOYcfCn-36" value="Predict Future Behaviour&amp;nbsp;" style="shape=process;whiteSpace=wrap;html=1;backgroundOutline=1;fontSize=10;" vertex="1" parent="WIyWlLk6GJQsqaUBKTNV-1">
          <mxGeometry x="330" y="530" width="120" height="60" as="geometry" />
        </mxCell>
        <mxCell id="2DpMu3CkP3vYGpOYcfCn-40" value="Sentiment analysis on transactions" style="swimlane;whiteSpace=wrap;html=1;fontSize=10;" vertex="1" parent="WIyWlLk6GJQsqaUBKTNV-1">
          <mxGeometry x="20" y="370" width="270" height="130" as="geometry" />
        </mxCell>
        <mxCell id="2DpMu3CkP3vYGpOYcfCn-43" value="&lt;span style=&quot;caret-color: rgb(32, 32, 33); color: rgb(32, 32, 33); font-family: SÃ¶hne, ui-sans-serif, system-ui, -apple-system, &amp;quot;Segoe UI&amp;quot;, Roboto, Ubuntu, Cantarell, &amp;quot;Noto Sans&amp;quot;, sans-serif, &amp;quot;Helvetica Neue&amp;quot;, Arial, &amp;quot;Apple Color Emoji&amp;quot;, &amp;quot;Segoe UI Emoji&amp;quot;, &amp;quot;Segoe UI Symbol&amp;quot;, &amp;quot;Noto Color Emoji&amp;quot;; font-size: 10px; font-style: normal; font-variant-caps: normal; font-weight: 400; letter-spacing: normal; orphans: 2; text-align: start; text-indent: 0px; text-transform: none; widows: 2; word-spacing: 0px; -webkit-text-stroke-width: 0px; background-color: rgb(251, 251, 251); text-decoration: none; float: none; display: inline !important;&quot;&gt;The Sentiment Analysis on Transactions feature analyzes the transaction descriptions to determine their sentiment. The results of these three features are combined to create a summary of the user&#39;s spending, saving, and investment behavior, including the calculation of average spending, total investment, and other key metrics.&lt;/span&gt;" style="text;whiteSpace=wrap;html=1;fontSize=10;fontColor=#202021;" vertex="1" parent="2DpMu3CkP3vYGpOYcfCn-40">
          <mxGeometry x="1" y="25" width="270" height="70" as="geometry" />
        </mxCell>
        <mxCell id="2DpMu3CkP3vYGpOYcfCn-50" value="&lt;p style=&quot;margin:0px;margin-top:10px;margin-left:10px;text-align:left;&quot;&gt;Based on Past Data feature&amp;nbsp;&lt;span style=&quot;caret-color: rgb(0, 0, 0); color: rgb(0, 0, 0); text-align: center;&quot;&gt;uses past&amp;nbsp;&lt;/span&gt;&lt;br style=&quot;border-color: var(--border-color); caret-color: rgb(0, 0, 0); color: rgb(0, 0, 0); text-align: center;&quot;&gt;&lt;span style=&quot;caret-color: rgb(0, 0, 0); color: rgb(0, 0, 0); text-align: center;&quot;&gt;transaction&lt;/span&gt;&lt;span style=&quot;caret-color: rgb(0, 0, 0); color: rgb(0, 0, 0); text-align: center;&quot;&gt;&amp;nbsp;data to predict future behavior,&amp;nbsp;&lt;/span&gt;&lt;br style=&quot;border-color: var(--border-color); caret-color: rgb(0, 0, 0); color: rgb(0, 0, 0); text-align: center;&quot;&gt;&lt;span style=&quot;caret-color: rgb(0, 0, 0); color: rgb(0, 0, 0); text-align: center;&quot;&gt;such as future spending, investment, and saving patterns.&lt;/span&gt;&lt;br&gt;&lt;/p&gt;" style="shape=note;html=1;size=15;spacingLeft=5;align=left;html=1;overflow=fill;whiteSpace=wrap;align=center;labelBackgroundColor=none;fontSize=10;fontColor=#202021;" vertex="1" parent="WIyWlLk6GJQsqaUBKTNV-1">
          <mxGeometry x="570" y="530" width="220" height="60" as="geometry" />
        </mxCell>
        <mxCell id="2DpMu3CkP3vYGpOYcfCn-52" value="" style="rounded=0;html=1;labelBackgroundColor=none;endArrow=none;dashed=1;fontSize=10;fontColor=#202021;entryX=1;entryY=0.5;entryDx=0;entryDy=0;" edge="1" source="2DpMu3CkP3vYGpOYcfCn-50" target="2DpMu3CkP3vYGpOYcfCn-36" parent="WIyWlLk6GJQsqaUBKTNV-1">
          <mxGeometry relative="1" as="geometry">
            <mxPoint x="614" y="580" as="targetPoint" />
          </mxGeometry>
        </mxCell>
        <mxCell id="2DpMu3CkP3vYGpOYcfCn-53" value="&lt;p style=&quot;margin:0px;margin-top:10px;margin-left:10px;text-align:left;&quot;&gt;Categorises the transactions and performs&lt;br style=&quot;border-color: var(--border-color); caret-color: rgb(0, 0, 0); color: rgb(0, 0, 0); text-align: center;&quot;&gt;&lt;span style=&quot;caret-color: rgb(0, 0, 0); color: rgb(0, 0, 0); text-align: center;&quot;&gt;&amp;nbsp;analysis on spending categories&amp;nbsp;&lt;/span&gt;&lt;br&gt;&lt;/p&gt;" style="shape=note;html=1;size=15;spacingLeft=5;align=left;html=1;overflow=fill;whiteSpace=wrap;align=center;labelBackgroundColor=none;fontSize=10;fontColor=#202021;" vertex="1" parent="WIyWlLk6GJQsqaUBKTNV-1">
          <mxGeometry x="570" y="315" width="220" height="50" as="geometry" />
        </mxCell>
        <mxCell id="2DpMu3CkP3vYGpOYcfCn-56" value="" style="rounded=0;html=1;labelBackgroundColor=none;endArrow=none;dashed=1;fontSize=10;fontColor=#202021;entryX=1;entryY=0.5;entryDx=0;entryDy=0;" edge="1" parent="WIyWlLk6GJQsqaUBKTNV-1">
          <mxGeometry relative="1" as="geometry">
            <mxPoint x="570" y="339.40999999999997" as="sourcePoint" />
            <mxPoint x="450" y="339.40999999999997" as="targetPoint" />
          </mxGeometry>
        </mxCell>
        <mxCell id="2DpMu3CkP3vYGpOYcfCn-63" style="edgeStyle=orthogonalEdgeStyle;rounded=0;orthogonalLoop=1;jettySize=auto;html=1;fontSize=10;fontColor=#202021;entryX=0.908;entryY=0.51;entryDx=0;entryDy=0;entryPerimeter=0;" edge="1" parent="WIyWlLk6GJQsqaUBKTNV-1" source="2DpMu3CkP3vYGpOYcfCn-57" target="2DpMu3CkP3vYGpOYcfCn-61">
          <mxGeometry relative="1" as="geometry">
            <mxPoint x="390" y="830" as="targetPoint" />
            <Array as="points">
              <mxPoint x="400" y="834" />
            </Array>
          </mxGeometry>
        </mxCell>
        <mxCell id="2DpMu3CkP3vYGpOYcfCn-57" value="User Interface" style="shape=process;whiteSpace=wrap;html=1;backgroundOutline=1;labelBackgroundColor=none;fontSize=10;fontColor=#202021;" vertex="1" parent="WIyWlLk6GJQsqaUBKTNV-1">
          <mxGeometry x="330" y="650" width="120" height="60" as="geometry" />
        </mxCell>
        <mxCell id="2DpMu3CkP3vYGpOYcfCn-61" value="&lt;p style=&quot;line-height: 150%;&quot;&gt;Finally, the results are displayed to&lt;br&gt;&amp;nbsp; &amp;nbsp; the user through the User&amp;nbsp;Interface&lt;br&gt;, and the data is stored in the Data Storage for future reference.&lt;/p&gt;" style="shape=dataStorage;whiteSpace=wrap;html=1;fixedSize=1;labelBackgroundColor=none;fontSize=10;fontColor=#202021;direction=west;" vertex="1" parent="WIyWlLk6GJQsqaUBKTNV-1">
          <mxGeometry x="510" y="790" width="190" height="90" as="geometry" />
        </mxCell>
      </root>
    </mxGraphModel>
  </diagram>
</mxfile>
